<?xml version="1.0" standalone="no"?>
<!DOCTYPE svg PUBLIC "-//W3C//DTD SVG 20010904//EN"
 "http://www.w3.org/TR/2001/REC-SVG-20010904/DTD/svg10.dtd">
<svg version="1.0" xmlns="http://www.w3.org/2000/svg"
 width="298.000000pt" height="298.000000pt" viewBox="0 0 298.000000 298.000000"
 preserveAspectRatio="xMidYMid meet">
<metadata>
Created by potrace 1.14, written by Peter Selinger 2001-2017
</metadata>
<g transform="translate(0.000000,298.000000) scale(0.100000,-0.100000)"
fill="#000000" stroke="none">
<path d="M1447 2800 c-39 -45 -42 -68 -17 -95 16 -17 20 -29 15 -42 -5 -10 -7
-22 -5 -28 1 -5 2 -22 1 -37 -1 -15 3 -30 9 -33 13 -8 3 -25 -16 -25 -12 0
-57 -19 -274 -117 -113 -52 -206 -79 -212 -63 -3 8 -30 13 -59 11 -9 0 -21
-12 -27 -26 -10 -21 -8 -29 13 -53 36 -43 32 -159 -12 -303 -7 -25 -15 -54
-18 -65 -2 -10 -20 -82 -40 -159 -20 -77 -38 -153 -41 -170 -3 -16 -9 -41 -14
-55 -11 -29 -32 -106 -37 -134 -4 -25 1 -23 -63 -30 -30 -4 -69 -9 -87 -12
l-32 -6 19 -37 c25 -47 57 -82 100 -108 142 -86 430 -74 557 23 39 30 90 111
77 124 -8 8 -81 21 -142 24 -13 1 -27 8 -31 16 -4 8 -29 101 -55 205 -26 105
-54 213 -61 240 -8 28 -17 65 -20 83 -4 18 -10 30 -14 27 -5 -2 -7 7 -5 20 1
15 -3 25 -11 25 -13 0 -9 -27 15 -115 6 -22 13 -51 15 -65 3 -14 9 -41 14 -60
5 -19 19 -71 31 -115 11 -44 26 -98 32 -120 6 -22 11 -43 10 -47 -1 -4 5 -25
13 -47 8 -23 13 -41 12 -42 -1 0 -38 -1 -82 -2 l-79 -2 -1 222 c0 121 -3 219
-7 216 -5 -2 -4 6 1 19 5 13 6 43 4 68 -12 112 -12 109 8 105 16 -3 18 0 13
23 -3 15 -8 34 -11 42 -3 8 -6 29 -7 47 -1 17 -5 35 -9 39 -11 11 -9 104 3
104 5 0 17 9 27 19 11 12 52 28 103 39 47 11 132 34 190 51 71 21 117 30 145
27 22 -3 46 -5 53 -5 17 -1 15 -26 -3 -45 -18 -18 -19 -39 -2 -74 13 -26 14
-116 3 -217 -2 -22 -5 -57 -5 -77 -1 -43 -6 -45 -61 -21 -29 13 -38 22 -35 34
3 10 -1 19 -10 23 -15 5 -15 8 -1 21 8 8 19 15 25 15 15 0 13 21 -3 43 -15 20
-102 47 -153 47 -17 0 -39 -7 -47 -16 -14 -14 -14 -18 -1 -44 13 -26 13 -28
-6 -33 -12 -3 -18 -10 -15 -16 4 -5 0 -38 -8 -73 -11 -48 -12 -65 -3 -71 8 -5
5 -13 -12 -27 -21 -18 -22 -24 -13 -45 12 -25 49 -40 134 -51 35 -5 50 -2 66
12 20 17 21 20 6 42 -15 23 -15 26 0 34 9 5 16 16 16 23 0 11 12 15 39 15 71
0 72 -2 65 -96 -5 -68 -3 -89 10 -109 9 -13 12 -26 6 -30 -5 -3 -3 -19 4 -38
15 -36 11 -84 -9 -124 -10 -19 -11 -31 -4 -39 6 -7 7 -27 4 -46 -12 -65 -12
-73 -3 -85 14 -17 2 -89 -19 -117 -9 -12 -32 -34 -50 -47 -20 -15 -33 -33 -33
-47 0 -14 -9 -27 -25 -34 -23 -10 -29 -20 -26 -40 0 -3 -19 -9 -42 -13 -105
-17 -136 -34 -141 -77 -2 -13 -15 -36 -29 -50 -33 -33 -35 -72 -4 -92 23 -15
92 -36 137 -42 14 -2 54 -7 90 -12 66 -10 411 -8 465 2 150 28 206 51 213 88
2 9 -13 35 -34 58 -20 22 -34 43 -31 47 11 10 -13 44 -39 53 -27 11 -77 21
-109 24 -11 0 -24 11 -30 23 -5 12 -19 26 -31 31 -11 6 -24 23 -27 39 -4 17
-19 36 -41 50 -54 35 -88 121 -65 165 6 11 5 35 -2 63 -8 32 -8 49 -1 58 8 10
7 21 -5 43 -18 35 -25 104 -11 121 6 7 8 19 5 28 -4 8 0 27 8 42 10 20 13 46
8 95 -7 79 -12 77 97 47 105 -28 222 -36 238 -17 10 12 9 18 -6 31 -21 19
-104 43 -192 56 -36 5 -83 12 -104 16 -22 3 -41 7 -43 8 -1 2 -6 41 -10 88
-11 128 -8 250 7 285 12 28 11 33 -9 53 -30 30 -19 39 54 44 60 4 72 2 265
-56 47 -13 101 -27 121 -30 19 -2 48 -16 63 -31 28 -25 29 -29 22 -88 -8 -79
-10 -90 -20 -106 -4 -7 -5 -16 -2 -19 3 -3 1 -14 -5 -24 -7 -15 -6 -17 6 -13
11 5 15 0 14 -17 0 -13 0 -159 0 -323 0 -165 0 -301 -2 -302 -1 -1 -37 -4 -79
-6 -84 -5 -88 -2 -63 46 14 25 14 27 0 16 -12 -10 -15 -10 -15 4 0 9 7 16 16
16 8 0 13 4 9 9 -3 5 -1 12 5 16 16 10 11 25 -6 18 -11 -4 -15 -2 -13 6 3 7 8
11 12 9 11 -5 38 54 32 70 -3 8 -1 20 4 26 7 8 4 12 -9 12 -10 0 -16 -4 -13
-9 2 -4 -1 -15 -8 -23 -10 -12 -9 -13 5 -8 11 4 16 1 16 -11 0 -12 -5 -15 -16
-11 -11 4 -15 2 -11 -8 3 -8 -1 -20 -9 -27 -8 -7 -12 -20 -8 -31 3 -10 0 -25
-6 -33 -7 -8 -10 -24 -7 -34 7 -30 -16 -54 -54 -57 -78 -6 -134 -16 -140 -26
-11 -18 36 -91 80 -125 68 -53 165 -78 301 -76 180 1 286 44 350 142 27 40 29
47 15 57 -9 7 -49 15 -90 19 -41 4 -75 8 -75 9 0 1 -12 46 -26 101 -14 55 -28
111 -30 125 -2 14 -13 57 -24 95 -11 39 -22 81 -25 95 -8 45 -13 68 -35 145
-12 42 -23 84 -25 93 -2 9 -11 48 -20 85 -17 75 -17 144 1 155 19 12 33 48 28
69 -7 24 -49 36 -76 22 -9 -5 -26 -9 -38 -9 -35 0 -157 45 -280 103 -63 30
-138 62 -167 72 -41 15 -49 21 -38 29 15 12 22 80 11 107 -4 9 1 22 14 34 11
10 20 25 20 34 0 21 -57 91 -75 91 -7 0 -25 -13 -38 -30z m641 -787 c-4 -16
14 -73 21 -69 4 3 7 -3 7 -12 0 -67 4 -81 22 -76 14 5 14 4 3 -4 -12 -9 -13
-18 -4 -49 25 -83 54 -199 54 -213 1 -8 9 -44 19 -80 10 -36 20 -79 23 -96 l6
-31 -72 2 c-40 2 -77 4 -83 4 -8 1 -11 88 -9 314 1 171 3 313 4 315 3 6 11 1
9 -5z m-1189 -195 c4 -375 4 -418 0 -422 -2 -3 -39 -6 -82 -9 l-79 -4 5 26 c5
28 134 537 142 559 10 29 13 4 14 -150z"/>
<path d="M2023 2009 c3 -9 0 -22 -6 -28 -8 -8 -7 -11 6 -11 19 0 22 18 6 40
-9 13 -10 13 -6 -1z"/>
<path d="M2002 1955 c4 -4 0 -24 -7 -45 -10 -29 -11 -40 -2 -44 8 -3 9 -7 2
-13 -5 -4 -16 -18 -22 -30 -11 -19 -10 -21 2 -17 8 4 15 1 15 -5 0 -6 -7 -11
-17 -11 -9 0 -13 -3 -10 -7 4 -3 3 -11 -2 -17 -5 -6 -12 -27 -15 -47 -3 -20
-8 -42 -11 -51 -4 -9 0 -15 10 -15 8 0 15 3 16 6 1 11 7 36 19 81 7 25 13 56
15 70 2 14 4 25 5 25 1 0 7 26 14 57 11 50 10 58 -3 63 -8 3 -12 3 -9 0z"/>
<path d="M145 1895 c-4 -11 -11 -31 -16 -45 -21 -57 -11 -166 21 -230 10 -19
20 -58 24 -87 3 -28 9 -59 13 -69 3 -10 -12 1 -35 24 -31 31 -51 42 -87 47
-25 4 -49 5 -52 1 -8 -7 83 -113 110 -128 12 -6 33 -11 47 -10 24 0 28 -5 44
-66 10 -37 20 -74 23 -82 3 -8 -8 -2 -25 13 -16 16 -47 35 -68 42 -36 12 -90
12 -102 0 -9 -9 109 -123 144 -140 18 -8 45 -15 61 -15 25 0 32 -8 64 -71 31
-58 33 -67 15 -54 -64 47 -163 63 -216 35 -23 -12 -23 -14 -6 -24 10 -6 49
-30 86 -54 72 -45 129 -59 173 -43 24 9 29 6 59 -37 51 -71 51 -72 17 -55 -18
9 -50 16 -73 17 -40 0 -106 -20 -106 -33 0 -8 135 -82 180 -99 32 -12 52 -11
102 4 9 3 27 -6 41 -18 l24 -23 -56 0 c-37 -1 -65 -7 -84 -20 l-29 -19 90 -42
c100 -48 143 -58 187 -40 26 11 35 10 62 -7 41 -24 42 -32 1 -31 -46 1 -93
-15 -130 -47 -37 -30 -36 -35 7 -42 17 -3 51 -10 78 -16 113 -26 172 -22 213
17 17 17 22 17 56 4 l38 -15 -52 -18 c-48 -16 -128 -82 -115 -95 8 -8 210 -16
245 -9 18 3 50 21 70 39 20 18 44 32 52 31 8 -2 30 -6 49 -9 18 -4 48 -7 67
-8 39 -1 36 -14 -6 -23 -68 -15 -133 -85 -151 -162 -8 -37 -3 -40 27 -19 11 8
58 27 105 42 94 30 133 62 143 119 9 46 22 44 30 -4 8 -52 58 -93 140 -115 35
-10 78 -26 96 -37 18 -11 35 -18 38 -15 11 12 -20 88 -50 122 -33 37 -95 74
-125 74 -40 1 13 18 76 24 35 4 67 8 70 9 4 1 19 -10 33 -25 42 -41 86 -51
205 -44 58 3 108 7 110 10 8 8 -36 58 -68 78 -17 10 -47 22 -67 26 l-37 8 37
13 c35 11 43 10 93 -15 61 -29 52 -30 243 8 l63 13 -29 28 c-36 34 -93 55
-144 53 -21 0 -38 0 -38 0 0 1 17 12 38 26 33 21 41 23 72 12 50 -17 87 -9
184 37 67 32 84 44 76 55 -17 19 -62 32 -108 30 l-42 -2 22 23 c15 16 28 21
42 17 64 -21 99 -11 231 65 59 34 60 38 22 50 -58 20 -103 20 -146 0 l-41 -18
40 50 c22 28 40 55 40 59 0 5 16 4 36 -2 54 -14 89 -4 187 56 l87 53 -31 13
c-66 28 -136 17 -201 -30 l-27 -20 32 70 c28 61 35 69 60 70 15 0 42 6 60 14
33 14 163 133 155 141 -8 9 -71 9 -103 2 -16 -4 -45 -21 -64 -37 -18 -17 -34
-30 -35 -30 -1 0 9 36 23 79 14 44 28 78 32 75 17 -10 78 26 123 74 26 28 48
54 49 58 4 15 -62 15 -91 0 -16 -8 -42 -30 -56 -47 l-27 -32 6 49 c10 76 12
85 39 149 21 50 24 72 21 130 -2 39 -10 85 -18 104 -14 34 -15 34 -27 12 -25
-47 -50 -136 -50 -177 0 -24 7 -64 15 -88 11 -30 14 -61 9 -93 -8 -60 -10 -62
-18 -19 -4 22 -20 46 -42 65 -32 29 -73 43 -59 22 3 -6 10 -36 16 -68 13 -72
33 -110 60 -118 18 -6 20 -12 14 -47 -4 -23 -13 -55 -20 -72 l-13 -30 0 36 c0
45 -28 105 -59 125 -13 9 -26 14 -28 11 -3 -2 -6 -50 -7 -105 -2 -103 -2 -103
46 -168 7 -9 -1 -34 -23 -77 -31 -57 -68 -112 -44 -63 15 30 9 125 -10 162
-20 38 -57 75 -71 70 -5 -2 -10 -53 -12 -114 -3 -109 -2 -112 26 -152 l29 -40
-44 -59 c-52 -72 -69 -85 -50 -38 20 47 19 117 -2 160 -28 59 -39 52 -72 -48
-35 -105 -38 -134 -14 -183 l17 -36 -35 -29 c-19 -15 -46 -37 -60 -48 l-25
-19 27 54 c29 58 32 110 9 166 -12 27 -30 40 -30 20 0 -4 -20 -44 -45 -87 -50
-89 -56 -111 -43 -167 10 -45 7 -47 -77 -93 l-50 -27 31 34 c18 19 39 48 48
66 18 35 22 139 6 163 -8 13 -12 12 -25 -7 -8 -12 -36 -45 -61 -75 -60 -69
-86 -126 -80 -177 5 -39 4 -39 -46 -60 -69 -29 -75 -27 -33 11 56 48 84 118
76 185 -1 14 -164 -92 -198 -129 -25 -27 -43 -69 -43 -104 0 -13 -6 -24 -12
-25 -7 0 -20 -2 -28 -4 -8 -1 -33 -6 -55 -9 l-40 -6 52 30 c64 37 113 106 113
160 0 19 -1 19 -32 0 -18 -10 -60 -26 -93 -36 -94 -27 -126 -49 -149 -106 -8
-19 -12 -38 -9 -42 4 -3 2 -6 -4 -6 -5 0 -15 17 -21 38 -16 53 -57 87 -127
107 -33 10 -81 28 -107 40 l-46 23 4 -25 c13 -72 56 -127 122 -159 19 -9 32
-17 30 -19 -2 -2 -30 2 -62 8 -54 11 -59 14 -62 40 -6 61 -38 100 -140 169
l-99 68 -3 -36 c-5 -53 40 -138 89 -171 21 -14 39 -27 39 -29 0 -3 -83 25
-122 41 -13 5 -14 13 -8 36 16 55 -14 112 -129 249 l-30 35 -10 -28 c-13 -34
-8 -116 10 -149 6 -12 26 -41 43 -62 l30 -39 -49 28 c-77 44 -85 53 -74 82 16
44 10 80 -27 150 -20 37 -43 80 -51 96 -8 15 -17 27 -19 27 -11 0 -34 -72 -34
-105 0 -40 22 -100 48 -129 16 -18 16 -19 -7 -6 -13 7 -43 30 -67 52 -41 38
-42 41 -28 63 8 12 16 38 17 58 2 36 -52 227 -65 227 -4 0 -17 -15 -30 -32
-18 -26 -22 -45 -22 -93 1 -33 6 -71 13 -83 20 -37 -2 -24 -35 21 -61 81 -61
81 -31 117 15 17 28 44 28 58 3 64 -3 198 -10 204 -12 13 -50 -21 -72 -64 -20
-40 -28 -135 -14 -158 3 -6 4 -10 1 -10 -3 0 -22 32 -42 71 -35 70 -35 71 -15
85 33 23 44 77 37 177 -4 50 -8 92 -9 94 -2 1 -17 -12 -35 -30 -20 -20 -36
-52 -45 -86 l-14 -55 -14 60 -15 59 32 30 c24 23 34 45 43 90 7 33 15 68 17
78 3 10 0 17 -8 17 -25 0 -58 -31 -81 -77 l-24 -46 -2 39 c-1 22 -3 44 -3 49
-1 6 6 33 14 60 22 76 8 174 -37 255 -13 24 -14 24 -20 5z"/>
</g>
</svg>
