<svg xmlns="http://www.w3.org/2000/svg" width="85px" height="85px" viewBox="0 0 85 85" aria-labelledby="ChatPopupTitle" aria-describedby="ChatPopupDesc"><title id="chatPopupTitle">Chat Popup</title><desc id="chatPopupDesc">Clicking on the Chat Popup opens a chat</desc><defs><filter x="-29.4%" y="-29.4%" width="158.8%" height="158.8%" filterUnits="objectBoundingBox" id="filter-ngage-1"><feOffset dx="0" dy="2" in="SourceAlpha" result="shadowOffsetOuter1"/><feGaussianBlur stdDeviation="4" in="shadowOffsetOuter1" result="shadowBlurOuter1"/><feColorMatrix values="0 0 0 0 0.35   0 0 0 0 0.35   0 0 0 0 0.35  0 0 0 0.5 0" type="matrix" in="shadowBlurOuter1" result="shadowMatrixOuter1"/><feMerge><feMergeNode in="shadowMatrixOuter1"/><feMergeNode in="SourceGraphic"/></feMerge></filter></defs><g id="Chat-Widget-Update" stroke="none" stroke-width="1" fill="none" fill-rule="evenodd"><g id="Desktop-widgets-A" transform="translate(-1348.000000, -678.000000)"><g id="Group" transform="translate(1168.000000, 516.000000)"><g id="Group-2-Copy-2" filter="url(#filter-ngage-1)" transform="translate(188.000000, 168.000000)"><circle id="Oval-Copy-23" fill="#3e3e3e" cx="34" cy="34" r="34"/> <g id="Group-3" transform="translate(14.571429, 19.428571)" fill="#FFFFFF"><path d="M17,0 L36.4285714,0 C37.7698344,-2.46386009e-16 38.8571429,1.08730846 38.8571429,2.42857143 L38.8571429,15.7857143 C38.8571429,17.1269772 37.7698344,18.2142857 36.4285714,18.2142857 L17,18.2142857 C15.658737,18.2142857 14.5714286,17.1269772 14.5714286,15.7857143 L14.5714286,2.42857143 C14.5714286,1.08730846 15.658737,1.13456443e-15 17,0 Z M33.3928571,10.9285714 C34.3988044,10.9285714 35.2142857,10.1130901 35.2142857,9.10714286 C35.2142857,8.10119563 34.3988044,7.28571429 33.3928571,7.28571429 C32.3869099,7.28571429 31.5714286,8.10119563 31.5714286,9.10714286 C31.5714286,10.1130901 32.3869099,10.9285714 33.3928571,10.9285714 Z M27.3214286,10.9285714 C28.3273758,10.9285714 29.1428571,10.1130901 29.1428571,9.10714286 C29.1428571,8.10119563 28.3273758,7.28571429 27.3214286,7.28571429 C26.3154813,7.28571429 25.5,8.10119563 25.5,9.10714286 C25.5,10.1130901 26.3154813,10.9285714 27.3214286,10.9285714 Z M33.5846823,18.2142857 C33.5846823,19.1072769 34.1885582,20.7263245 35.39631,23.0714286 C31.7314009,21.452381 29.3028295,19.8333333 28.1105957,18.2142857 L28.1105957,18.2142857 Z M21.25,7.28571429 C22.2559472,7.28571429 23.0714286,8.10119563 23.0714286,9.10714286 C23.0714286,10.1130901 22.2559472,10.9285714 21.25,10.9285714 C20.2440528,10.9285714 19.4285714,10.1130901 19.4285714,9.10714286 C19.4285714,8.10119563 20.2440528,7.28571429 21.25,7.28571429 Z" id="Combined-Shape-One"/><path d="M12.142,6.07142857 L12.1428571,18.0797746 C12.1428571,19.4210376 13.2301656,20.5083461 14.5714286,20.5083461 L24.285,20.5074286 L24.2857143,21.8571429 C24.2857143,23.1447553 23.2836508,24.1983233 22.0168221,24.2805485 L21.8571429,24.2857143 L10.7465472,24.2857143 L10.603495,24.4725275 C9.36567129,26.029304 6.9847839,27.5860806 3.46083287,29.1428571 C4.66858468,26.7977531 5.27246058,25.1787055 5.27246058,24.2857143 L5.27246058,24.2857143 L2.42857143,24.2857143 C1.08730846,24.2857143 0,23.1984058 0,21.8571429 L0,21.8571429 L0,8.5 C0,7.15873704 1.08730846,6.07142857 2.42857143,6.07142857 L2.42857143,6.07142857 L12.142,6.07142857 Z" id="Combined-Shape-Two"/></g></g></g></g></g></svg>